<?xml version="1.0" encoding="utf-8"?>
<!-- Generator: Adobe Illustrator 18.0.0, SVG Export Plug-In . SVG Version: 6.00 Build 0)  -->
<!DOCTYPE svg PUBLIC "-//W3C//DTD SVG 1.1//EN" "http://www.w3.org/Graphics/SVG/1.1/DTD/svg11.dtd">
<svg version="1.1" id="Capa_1" xmlns="http://www.w3.org/2000/svg" xmlns:xlink="http://www.w3.org/1999/xlink" x="0px" y="0px"
	 viewBox="0 0 244.1 368.9" enable-background="new 0 0 244.1 368.9" xml:space="preserve">
<g>
	
		<ellipse fill-rule="evenodd" clip-rule="evenodd" fill="none" stroke="#293442" stroke-width="7.1545" stroke-miterlimit="10" cx="122.5" cy="334.6" rx="76.3" ry="33.7"/>
	<path fill-rule="evenodd" clip-rule="evenodd" fill="#AAC6E7" d="M57.7,253.7c25.8,7.7,59.5,14.3,97.7,12.9l-0.1,0.1
		c12.2-0.3,19.7-1.2,23.6-1.8l6.9-11.3l-0.1,0l5.1-8.6l0,0l10.4-17.5l0.6-1.1c-6.3,2.1-13,4.2-19.9,6.1c-2.4,0.6-4.8,1.2-7.3,1.8
		l-0.1,0.2c-35.2,8.9-77.4,13.9-123.2,7.6l6.8,11.4l-0.1,0.1L57.7,253.7z"/>
	<path fill-rule="evenodd" clip-rule="evenodd" fill="#4576B0" d="M72.6,277.6l24.5,41c5.3,8.9,14.6,14.2,24.9,14.2
		c10.3,0,19.7-5.3,24.9-14.2l18.4-30.8C129.5,291.9,100.2,286.5,72.6,277.6z"/>
	<path fill-rule="evenodd" clip-rule="evenodd" fill="#4576B0" d="M9.3,169.6L9.3,169.6l0,0.1l0.1,0.2l0,0c0.3,0.7,0.6,1.4,0.9,2.1
		l0,0l0.1,0.2l0,0.1l0.1,0.2l0.1,0.3l0,0l0,0.1l0.1,0.2l0.1,0.1l0.1,0.1l0.1,0.1l0.1,0.1l0.1,0.2l0,0.1l0.1,0.2l0,0.1l0.1,0.2l0,0.1
		l0.1,0.2l0,0l0.1,0.3l0,0l0.1,0.3l0,0l0.1,0.2l0,0l0.1,0.2l0,0.1l0.1,0.2l0,0.1l0,0l0.1,0.2l0,0l0.1,0.2l0.1,0.1l0.1,0.1l0.1,0.1
		l0.1,0.1l0.1,0.2l0,0.1l0.1,0.2l0.1,0.3l0,0l0.1,0.2l0,0l0.1,0.3c0.1,0.2,0.2,0.4,0.3,0.5l28.9,48.4h0l0.1,0.1
		c7.8,1.1,15.5,1.7,23.1,2l0.7,0.1l0,0c51.4,1.7,96-13.6,130.5-32c12.5-6,22.6-11.1,32.7-17l0.9-1.5c0.1-0.2,0.2-0.4,0.3-0.5
		c1.3-2.5,2.5-5.1,3.6-7.7l0,0l0.1-0.2l0-0.1l0.1-0.1l0-0.1l0-0.1l0.1-0.2l0,0l0.1-0.2l0.1-0.2l0-0.1l0-0.1l0.1-0.1l0-0.1l0.1-0.2
		l0,0l0.1-0.2l0,0l0.1-0.1l0-0.1l0-0.1l0.1-0.1c0.1-0.3,0.2-0.6,0.4-0.9l0,0c0.4-1.1,0.8-2.2,1.2-3.3l0,0l0.2-0.4
		c-8.9,5-19.7,10.6-28.6,14.2l-0.3,0.5c-99.5,43.1-169.8,6.5-202.4-18.7C6.8,163,8,166.3,9.3,169.6z"/>
	<path fill-rule="evenodd" clip-rule="evenodd" fill="#769644" d="M19.5,129.7c0,0.6,0.1,1.2,0.1,1.9
		C19.6,130.9,19.6,130.3,19.5,129.7L19.5,129.7z M19.7,131.5c0.1,0.8,0.1,1.6,0.2,2.4c39.8,26.8,96.2,49.5,177,37.2
		c2.5-0.4,11.4-2.7,18-4.8l0,0c11.1-4.3,19.8-8.5,24.7-11.1c2.9-10.5,4.4-21.4,4.4-32.6c0-0.4,0-0.8,0-1.2c-6,0.4-12.6,0.3-19.4-0.2
		c-93.3-7.1-62.4-69.2-157.7-49.6c-15.3,3.1-27.7,5.5-37.8,7.3c-9.3,1.6-16.7,2.8-22.5,3.6c-4.1,11.7-6.4,24-6.7,36.6
		c6.7,5.7,13.4,10.8,20,15.6c0-0.3-0.1-0.5-0.1-0.8C19.8,133.1,19.8,132.3,19.7,131.5z"/>
	<path fill-rule="evenodd" clip-rule="evenodd" fill="#263547" d="M120.3,0.6C88.3,1,58.2,13.9,35.5,36.8
		c-9.5,9.6-17.3,20.5-23.1,32.3l25.3-4.7C56,38,86.4,20.4,120.5,20c27.7-0.4,53.8,10.1,73.6,29.6c16.7,16.5,27.1,37.7,29.8,60.6
		c4.1,0.5,11.9,1.4,19.6,1.5c-2.6-28.7-15.1-55.4-35.9-75.9C184.3,12.6,153.2,0.1,120.3,0.6z"/>
</g>
</svg>
