<?xml version="1.0" encoding="utf-8"?>
<!-- Generator: Adobe Illustrator 18.0.0, SVG Export Plug-In . SVG Version: 6.00 Build 0)  -->
<!DOCTYPE svg PUBLIC "-//W3C//DTD SVG 1.1//EN" "http://www.w3.org/Graphics/SVG/1.1/DTD/svg11.dtd">
<svg version="1.1" id="Capa_1" xmlns="http://www.w3.org/2000/svg" xmlns:xlink="http://www.w3.org/1999/xlink" x="0px" y="0px"
	 viewBox="0 0 244.1 368.9" enable-background="new 0 0 244.1 368.9" xml:space="preserve">
<g>
	<ellipse fill="none" stroke="#000000" stroke-width="2.7644" stroke-miterlimit="10" cx="126.3" cy="327.7" rx="95.6" ry="39.8"/>
	<g>
		<path d="M57.6,245c25.7,7.5,59.5,13.8,97.8,12.5l0,0c12.2-0.3,19.7-1.3,23.5-1.9l6.9-11l0,0l5-8.5l0,0l10.3-16.9l0.6-0.9
			c-6.3,2.2-12.8,4.1-20.1,6c-2.5,0.6-4.7,1.3-7.2,1.9v0.3c-35.1,8.8-77.4,13.5-123.1,7.5l6.9,11l0,0H57.6z"/>
		<path d="M72.4,268.2L96.8,308c5.3,8.5,14.7,13.8,25.1,13.8s19.7-5,25.1-13.8l18.5-29.8C129.4,282,100.3,276.7,72.4,268.2z"/>
		<path d="M9.4,163.6L9.4,163.6L9.4,163.6L9.4,163.6L9.4,163.6c0.3,0.9,0.6,1.6,0.9,2.2l0,0v0.3l0,0v0.3v0.3l0,0l0,0v0.3l0,0l0,0
			l0,0l0,0v0.3l0,0v0.3l0,0v0.3l0,0v0.3l0,0v0.3l0,0v0.3l0,0v0.3l0,0v0.3l0,0v0.3l0,0l0,0v0.3l0,0l0,0l0,0l0,0l0,0l0,0v0.3l0,0v0.3
			v0.3l0,0v0.3l0,0v0.3c0,0.3,0.3,0.3,0.3,0.6l31.6,47l0,0l0,0c7.8,0.9,15.7,1.6,23.2,1.9h0.6l0,0c51.4,1.6,95.9-13.2,130.3-31
			c12.5-6,22.6-10.7,32.6-16.6l0.9-1.6c0-0.3,0.3-0.3,0.3-0.6c1.3-2.5,2.5-5,3.8-7.5l0,0v-0.3l0,0l0,0l0,0l0,0l0,0l0,0v-0.3v-0.3
			l0,0l0,0l0,0l0,0v-0.3l0,0v-0.3l0,0l0,0l0,0l0,0l0,0c0-0.3,0.3-0.6,0.3-0.9l0,0c0.3-0.9,0.9-2.2,1.3-3.1l0,0v-0.3
			c-8.8,4.7-19.7,10.3-28.5,13.8l-0.3,0.6C107.5,214,37,178.6,4.4,154.2C6.6,157.3,7.8,160.4,9.4,163.6z"/>
		<path d="M19.4,125c0,0.6,0,1.3,0,1.9C19.4,126.3,19.4,125.6,19.4,125L19.4,125z M19.7,126.9c0,0.6,0,1.6,0.3,2.2
			c39.8,26,96.2,47.9,177,36c2.5-0.3,11.3-2.5,17.9-4.7l0,0c11.3-4.1,19.7-8.1,24.8-10.7c2.8-10,4.4-20.7,4.4-31.6
			c0-0.3,0-0.6,0-1.3c-6,0.3-12.5,0.3-19.4-0.3C131.3,110,162,49.8,67,68.9c-15.4,3.1-27.6,5.3-37.9,6.9c-9.4,1.6-16.6,2.8-22.6,3.4
			C2.5,90.6,0.3,102.5,0,114.7c6.6,5.3,13.5,10.3,20.1,15c0-0.3,0-0.6,0-0.6C19.7,128.5,19.7,127.5,19.7,126.9z"/>
		<path d="M120,0C88,0.3,58,12.9,35.4,35.1C26,44.5,18.2,54.8,12.2,66.4l25.4-4.7c18.2-25.4,48.6-42.6,82.7-42.9
			c27.6-0.3,53.9,9.7,73.6,28.5c16.6,16,26.9,36.3,29.8,58.6c4.1,0.6,11.9,1.3,19.7,1.6c-2.5-27.9-15-53.6-35.7-73.3
			C184.2,11.6,153.2-0.3,120,0z"/>
	</g>
</g>
</svg>
