<?xml version="1.0" encoding="utf-8"?>
<!-- Generator: Adobe Illustrator 18.0.0, SVG Export Plug-In . SVG Version: 6.00 Build 0)  -->
<!DOCTYPE svg PUBLIC "-//W3C//DTD SVG 1.1//EN" "http://www.w3.org/Graphics/SVG/1.1/DTD/svg11.dtd">
<svg version="1.1" id="Capa_1" xmlns="http://www.w3.org/2000/svg" xmlns:xlink="http://www.w3.org/1999/xlink" x="0px" y="0px"
	 viewBox="0 0 190 178.3" enable-background="new 0 0 190 178.3" xml:space="preserve">
<ellipse fill-rule="evenodd" clip-rule="evenodd" fill="none" stroke="#FFFFFF" stroke-width="2.7644" stroke-miterlimit="10" cx="93.6" cy="104.6" rx="30.5" ry="12.7"/>
<g>
	<path fill-rule="evenodd" clip-rule="evenodd" fill="#FFFFFF" d="M71.7,78.2c8.2,2.4,19,4.4,31.2,4l0,0c3.9-0.1,6.3-0.4,7.5-0.6
		l2.2-3.5l0,0l1.6-2.7l0,0l3.3-5.4l0.2-0.3c-2,0.7-4.1,1.3-6.4,1.9c-0.8,0.2-1.5,0.4-2.3,0.6l0,0.1c-11.2,2.8-24.7,4.3-39.3,2.4
		l2.2,3.5l0,0L71.7,78.2z"/>
	<path fill-rule="evenodd" clip-rule="evenodd" fill="#FFFFFF" d="M76.4,85.6l7.8,12.7c1.7,2.7,4.7,4.4,8,4.4c3.3,0,6.3-1.6,8-4.4
		l5.9-9.5C94.6,90,85.3,88.3,76.4,85.6z"/>
	<path fill-rule="evenodd" clip-rule="evenodd" fill="#FFFFFF" d="M56.3,52.2L56.3,52.2L56.3,52.2L56.3,52.2L56.3,52.2
		c0.1,0.3,0.2,0.5,0.3,0.7l0,0l0,0.1l0,0l0,0.1l0,0.1l0,0l0,0l0,0.1l0,0l0,0l0,0l0,0l0,0.1l0,0l0,0.1l0,0l0,0.1l0,0l0,0.1l0,0l0,0.1
		l0,0l0,0.1l0,0l0,0.1l0,0l0,0.1l0,0l0,0.1l0,0l0,0l0,0.1l0,0l0,0l0,0l0,0l0,0l0,0l0,0.1l0,0l0,0.1l0,0.1l0,0l0,0.1l0,0l0,0.1
		c0,0.1,0.1,0.1,0.1,0.2L66.8,70l0,0l0,0c2.5,0.3,5,0.5,7.4,0.6l0.2,0l0,0c16.4,0.5,30.6-4.2,41.6-9.9c4-1.9,7.2-3.4,10.4-5.3
		l0.3-0.5c0-0.1,0.1-0.1,0.1-0.2c0.4-0.8,0.8-1.6,1.2-2.4l0,0l0-0.1l0,0l0,0l0,0l0,0l0,0l0,0l0-0.1l0-0.1l0,0l0,0l0,0l0,0l0-0.1l0,0
		l0-0.1l0,0l0,0l0,0l0,0l0,0c0-0.1,0.1-0.2,0.1-0.3l0,0c0.1-0.3,0.3-0.7,0.4-1l0,0l0-0.1c-2.8,1.5-6.3,3.3-9.1,4.4l-0.1,0.2
		c-31.7,13.3-54.2,2-64.6-5.8C55.4,50.2,55.8,51.2,56.3,52.2z"/>
	<path fill-rule="evenodd" clip-rule="evenodd" fill="#FFFFFF" d="M59.5,39.9c0,0.2,0,0.4,0,0.6C59.5,40.3,59.5,40.1,59.5,39.9
		L59.5,39.9z M59.6,40.5c0,0.2,0,0.5,0.1,0.7c12.7,8.3,30.7,15.3,56.5,11.5c0.8-0.1,3.6-0.8,5.7-1.5l0,0c3.6-1.3,6.3-2.6,7.9-3.4
		c0.9-3.2,1.4-6.6,1.4-10.1c0-0.1,0-0.2,0-0.4c-1.9,0.1-4,0.1-6.2-0.1C95.2,35.1,105,15.9,74.7,22c-4.9,1-8.8,1.7-12.1,2.2
		c-3,0.5-5.3,0.9-7.2,1.1c-1.3,3.6-2,7.4-2.1,11.3c2.1,1.7,4.3,3.3,6.4,4.8c0-0.1,0-0.2,0-0.2C59.6,41,59.6,40.7,59.6,40.5z"/>
	<path fill-rule="evenodd" clip-rule="evenodd" fill="#FFFFFF" d="M91.6,0C81.4,0.1,71.8,4.1,64.6,11.2c-3,3-5.5,6.3-7.4,10l8.1-1.5
		C71.1,11.6,80.8,6.1,91.7,6c8.8-0.1,17.2,3.1,23.5,9.1c5.3,5.1,8.6,11.6,9.5,18.7c1.3,0.2,3.8,0.4,6.3,0.5
		c-0.8-8.9-4.8-17.1-11.4-23.4C112.1,3.7,102.2-0.1,91.6,0z"/>
</g>
<path fill-rule="evenodd" clip-rule="evenodd" fill="#FFFFFF" d="M0.1,178l6.9,0l0-5.9l1.5,0l3.9,5.8l7.8,0l-4.8-6.9
	c2.5-1.2,4-3.3,4-6.3l0-0.1c0-2.1-0.7-3.6-1.9-4.9c-1.4-1.4-3.8-2.3-7.4-2.3l-10,0.1L0.1,178L0.1,178z M6.9,167.2l0-4l3,0
	c1.6,0,2.6,0.6,2.6,1.9l0,0.1c0,1.3-1,2-2.6,2L6.9,167.2z"/>
<rect x="21.1" y="157.4" transform="matrix(-1 6.008263e-003 -6.008263e-003 -1 49.9765 335.1903)" fill-rule="evenodd" clip-rule="evenodd" fill="#FFFFFF" width="6.9" height="20.5"/>
<path fill-rule="evenodd" clip-rule="evenodd" fill="#FFFFFF" d="M41.1,178.3c6.3,0,11.2-4.8,11.1-10.8l0-0.1
	c0-5.9-4.9-10.6-11.2-10.6c-6.3,0-11.2,4.8-11.1,10.8l0,0.1C29.9,173.7,34.7,178.3,41.1,178.3L41.1,178.3z M41.1,172.2
	c-2.6,0-4.3-2.2-4.3-4.6l0-0.1c0-2.4,1.6-4.6,4.2-4.6c2.6,0,4.3,2.2,4.3,4.6l0,0.1C45.3,170.1,43.7,172.2,41.1,172.2z"/>
<path fill-rule="evenodd" clip-rule="evenodd" fill="#FFFFFF" d="M71.8,178.3c5.1,0,7.9-2.5,9.7-5.6l-5.7-3.2
	c-0.8,1.5-1.9,2.6-3.8,2.6c-2.3,0-3.8-1.8-3.9-4.5l0-0.1c0-2.5,1.5-4.5,3.8-4.5c1.9,0,3,1,3.7,2.5l5.6-3.3c-1.7-3.1-4.8-5.3-9.3-5.3
	c-6.1,0-10.9,4.6-10.8,10.8l0,0.1C61.1,174.1,66.1,178.3,71.8,178.3z"/>
<path fill-rule="evenodd" clip-rule="evenodd" fill="#FFFFFF" d="M92.7,178.2c6.1,0,10.2-2.8,10.1-9.8l-0.1-11.1l-7,0l0.1,11.4
	c0,2.5-1.3,3.5-3.1,3.5c-1.8,0-3.2-1.1-3.2-3.6l-0.1-11.2l-7,0l0.1,11.3C82.6,175.5,86.5,178.3,92.7,178.2z"/>
<path fill-rule="evenodd" clip-rule="evenodd" fill="#FFFFFF" d="M102.6,177.9l7.3,0l1-2.8l7.2,0l1.1,2.7l7.4,0l-8.8-20.6l-6.8,0
	L102.6,177.9L102.6,177.9z M112.7,170.2l1.8-5l1.9,5L112.7,170.2z"/>
<path fill-rule="evenodd" clip-rule="evenodd" fill="#FFFFFF" d="M127.6,177.8l6.9,0l0-5.9l1.5,0l3.9,5.8l7.8,0l-4.8-6.9
	c2.5-1.2,4-3.3,4-6.3l0-0.1c0-2.1-0.7-3.6-1.9-4.9c-1.4-1.4-3.8-2.3-7.4-2.3l-10,0.1L127.6,177.8L127.6,177.8z M134.3,167.1l0-4l3,0
	c1.6,0,2.6,0.6,2.6,1.9l0,0.1c0,1.3-1,2-2.6,2L134.3,167.1z"/>
<polygon fill-rule="evenodd" clip-rule="evenodd" fill="#FFFFFF" points="153.7,177.8 160.6,177.7 160.5,163 166.5,163 166.5,157.2 
	147.6,157.3 147.6,163.1 153.6,163.1 "/>
<path fill-rule="evenodd" clip-rule="evenodd" fill="#FFFFFF" d="M178,178.2c6.3,0,11.2-4.8,11.1-10.8l0-0.1
	c0-5.9-4.9-10.6-11.2-10.6c-6.3,0-11.2,4.8-11.1,10.8l0,0.1C166.8,173.6,171.7,178.2,178,178.2L178,178.2z M178,172.1
	c-2.6,0-4.3-2.2-4.3-4.6l0-0.1c0-2.4,1.6-4.6,4.2-4.6c2.6,0,4.3,2.2,4.3,4.6l0,0.1C182.2,169.9,180.6,172.1,178,172.1z"/>
<path fill-rule="evenodd" clip-rule="evenodd" fill="#FFFFFF" d="M4.1,133.7c-0.7,3.4-2.2,8.4-2.9,10.9c-2,7.5,0.1,9,3.7,6.9
	c3.1-1.8,5.3-3.9,7-6.7c1-0.1,2.2-0.7,3.6-2c0.6-0.6,1-1.1,1.1-1.3c0.2-0.6-0.1-0.5-1.1,0.5c-1.3,1.3-2.4,2-3.3,2.2
	c1-1.7,1.8-3.7,2.5-6c2.4-8.5,1.5-12.9-2.4-11.2c-3.6,1.6-5,11.2-3.9,14.7c0.3,0.9,0.7,1.7,1.2,2.2c-1.4,3.4-3,5.9-4.8,7
	c-1.5,0.8-1.9-0.4-0.9-3.9c0.9-3.5,2.1-8.2,3.9-14.8c1.1-4.2,0.4-5.6-2.1-5.2c-0.1,0-0.3,0-0.3,0S5.3,128.5,4.1,133.7L4.1,133.7z
	 M9.3,141.3c-1-2.9,0.6-12.6,3-13.6c1.7-0.7,1.8,3-1.3,12.7c-0.3,0.9-0.6,1.8-0.9,2.6C9.7,142.6,9.5,142,9.3,141.3z"/>
<path fill-rule="evenodd" clip-rule="evenodd" fill="#FFFFFF" d="M15.1,144.5c-1.9,7.5,2.2,8.5,4.3,4.9c1.1-1.8,1.5-2.6,2.5-5.1
	c0.3-0.8,0.5-1.4,0.5-1.6c0-0.7-0.3-0.4-0.8,0.9c-1.1,2.7-1.6,3.9-2.5,5.3c-0.8,1.2-2,1.2-1.2-2.1c1-4.3,2.5-9.6,2.6-9.9
	c0,0-0.2-0.2-0.5-0.4c-1.1-0.8-2.6-0.8-3.7,3.4C15.8,141.6,15.4,143.6,15.1,144.5L15.1,144.5z M22.1,133.7c0.6-1,0-2.2-1.2-2.6
	c-1.3-0.4-2.8,0-3.3,0.9c-0.6,0.9,0,2.1,1.2,2.6C20,135,21.5,134.6,22.1,133.7z"/>
<path fill-rule="evenodd" clip-rule="evenodd" fill="#FFFFFF" d="M33.8,137.9c1.1-4,0-6-2.9-5.3c-2.9,0.7-4.5,5.8-2.9,8.8
	c0.3,0.5,0.6,1,1,1.4c-1.4,3.8-2.5,5.7-3.8,6.5c-1.2,0.8-1.7,0.6-0.9-2.6c1.6-6.6,3.2-12.5,3.5-13.4c0,0-0.1-0.1-0.4-0.3
	c-1.4-0.8-2.7-1-3.9,3.6c-0.6,2.7-1.5,6.1-1.9,7.7c-1.8,7.5,0.4,8.1,3.7,5.6c2.2-1.6,4.2-3.6,5.9-6.2c1.1,0.1,2.3-0.3,3.3-1.2
	c0.6-0.6,1-1.2,1.1-1.3c0.2-0.6-0.1-0.5-1.1,0.5c-1,1-2,1.4-2.9,1.4C32.5,141.6,33.3,139.9,33.8,137.9L33.8,137.9z M28.7,141.1
	c-1.3-2.4,0.3-7.3,2-7.6c0.9-0.2,1,1.7-0.7,6.8l-0.6,1.8C29.1,141.8,28.9,141.5,28.7,141.1z"/>
<path fill-rule="evenodd" clip-rule="evenodd" fill="#FFFFFF" d="M34,144.4c-1.9,7.5,2.2,8.5,4.3,4.9c1.1-1.8,1.5-2.6,2.5-5.1
	c0.3-0.8,0.5-1.4,0.5-1.6c0-0.7-0.3-0.4-0.8,0.9c-1.1,2.7-1.6,3.9-2.5,5.3c-0.8,1.2-2,1.2-1.2-2.1c1-4.3,2.5-9.6,2.6-9.9
	c0,0-0.2-0.2-0.5-0.4c-1.1-0.8-2.6-0.8-3.7,3.4C34.7,141.5,34.2,143.4,34,144.4L34,144.4z M35.8,134.9c0,0,2.6-0.9,3.9-1.4
	c1-0.4,1.5-1.4,1-2.3c-0.5-0.8-1.6-0.9-2.7,0.4l-2.5,2.9L35.8,134.9z"/>
<path fill-rule="evenodd" clip-rule="evenodd" fill="#FFFFFF" d="M45.4,144.3c-1.9,7.5,2.2,8.5,4.3,4.9c1.1-1.8,1.5-2.6,2.5-5.1
	c0.3-0.8,0.5-1.4,0.5-1.6c0-0.7-0.3-0.4-0.8,0.9c-1.1,2.7-1.6,3.9-2.5,5.3c-0.8,1.2-2,1.2-1.2-2c0.8-3.3,3.6-14.2,3.8-14.9
	c1.1-4.1,0.4-5.6-2.1-5.2c-0.1,0-0.3,0-0.3,0s-0.2,1.7-1.4,6.8C47.5,136.4,46.2,141,45.4,144.3z"/>
<path fill-rule="evenodd" clip-rule="evenodd" fill="#FFFFFF" d="M52,141.6c-2.2,8.5,2,11.7,4.4,8.6c0.4-0.5,0.8-1.3,1.2-2.3
	c0.1,4,3,4.1,4.8,1.3c1.1-1.8,1.5-2.6,2.5-5.1c0.3-0.8,0.5-1.4,0.5-1.6c0-0.7-0.3-0.4-0.8,0.9c-1.1,2.7-1.6,3.9-2.5,5.3
	c-0.8,1.2-2,1.2-1.2-2c1.6-6.6,3.2-12.5,3.5-13.4c0,0-0.1-0.1-0.4-0.3c-1-0.6-2.1-0.9-3,1C59,132,54.1,133.3,52,141.6L52,141.6z
	 M58.1,143.9c-0.7,2.9-1.4,4.8-2.1,5.7c-1.2,1.5-2.6-1.4-0.9-7.8c1.9-6.8,4.1-9.2,5.4-7.1c-0.2,0.5-0.4,1.2-0.6,1.9l-1.6,6.7
	C58.2,143.5,58.2,143.7,58.1,143.9z"/>
<path fill-rule="evenodd" clip-rule="evenodd" fill="#FFFFFF" d="M81.2,134.1c-1.4-2.5-8.9-1.5-11.2,7.3c-2.2,8.5,1.9,11.4,6.3,9.5
	c2.5-1.2,3.9-3.2,5.6-6.9c0.4-0.8,0.5-1.4,0.5-1.6c0-0.7-0.2-0.4-0.8,0.9c-1.9,4.2-3.4,5.9-5,6.7c-2,0.9-4.1-0.8-3.9-4.9
	C77.4,142,82.5,136.6,81.2,134.1L81.2,134.1z M73.2,141.6c1.9-7.2,4.3-9.1,5.2-7.2c0.7,1.6-1.1,6.8-5.7,9.7
	C72.8,143.3,73,142.5,73.2,141.6z"/>
<path fill-rule="evenodd" clip-rule="evenodd" fill="#FFFFFF" d="M95.7,143.1c-1.1,2.7-1.6,3.9-2.5,5.3c-1,1.5-1.4,1.7-1.9-0.1
	c-0.4-1.4-0.8-3.3-1.2-5.2c2.6-2.1,4.4-5.1,5.2-7.8c1.1-3.9-2.7-3.3-2.7-3.2c-0.2,3.8-1.1,7.1-2.8,9.3c-0.4-1.8-0.7-3.5-1.1-5
	c-1.4-5.9-5-6.1-6.3-2.6c-1.4,3.7-0.7,10.1,0.9,12.6l0.1,0.1c-0.5,0.5-0.9,1.1-1.2,1.7c-0.7,1.6-0.2,3.1,1.5,3.1l0.3,0
	c0-0.1,0.1-0.5,0.1-1c0.3-2.3,1.6-3.9,3.3-5.3l0.9,3.7c0.8,3.3,3.1,3.5,5.2,0.1c1.1-1.8,1.5-2.6,2.5-5.1c0.3-0.8,0.5-1.4,0.5-1.6
	C96.5,141.5,96.2,141.8,95.7,143.1L95.7,143.1z M83.8,146.2c-2-3.5-2.1-9.1-1.1-11.8c0.5-1.4,1.9-1.7,2.8,2.7c0.3,1.7,1,4.2,1.6,6.7
	C85.9,144.6,84.8,145.3,83.8,146.2z"/>
<path fill-rule="evenodd" clip-rule="evenodd" fill="#FFFFFF" d="M95.3,156.6l1.6-6.3c1.9,1.7,6.7,0.3,8.8-7.8
	c2.2-8.5-1.7-11.7-4.1-8.6c-0.3,0.4-0.6,0.8-0.9,1.4c0.4-2.9-0.7-3.7-2.4-3.5c-0.1,0-0.2,0-0.2,0s-0.1,1.7-1.4,6.8
	c-0.4,1.7-2,7.8-3,12c-1.2,5.1-0.4,5.7,1.4,5.9C95.2,156.6,95.3,156.6,95.3,156.6L95.3,156.6z M99.5,140.1l0.1-0.5
	c0-0.1,0.1-0.2,0.1-0.3c0.7-2.4,1.6-4.1,2.2-4.8c1.2-1.5,2.4,1.4,0.6,7.8c-1.8,6.7-4.1,9.1-5.4,7.2c0.8-3.3,1.7-6.7,2.1-8.5
	L99.5,140.1z"/>
<path fill-rule="evenodd" clip-rule="evenodd" fill="#FFFFFF" d="M118.1,133.8c-1.4-2.5-8.9-1.5-11.2,7.3c-2.2,8.5,1.9,11.4,6.3,9.5
	c2.5-1.2,3.9-3.2,5.6-6.9c0.4-0.8,0.5-1.4,0.5-1.6c0-0.7-0.2-0.4-0.8,0.9c-1.9,4.2-3.4,5.9-5,6.7c-2,0.9-4.1-0.8-3.9-4.9
	C114.4,141.7,119.5,136.3,118.1,133.8L118.1,133.8z M110.2,141.3c1.9-7.2,4.3-9.1,5.2-7.2c0.7,1.6-1.1,6.8-5.7,9.7
	C109.8,143,109.9,142.2,110.2,141.3z"/>
<path fill-rule="evenodd" clip-rule="evenodd" fill="#FFFFFF" d="M122.7,135.1c0.9,0.3,0.8,1,0.6,2.2l-1.4,6.4
	c-1.9,7.5,2.2,8.5,4.3,4.9c1.1-1.8,1.5-2.6,2.5-5.1c0.3-0.8,0.5-1.4,0.5-1.6c0-0.7-0.3-0.4-0.8,0.9c-1.1,2.7-1.6,3.9-2.5,5.3
	c-0.8,1.2-2,1.2-1.2-2l2.7-11.1c0.2-0.7-0.1-0.8-5.3-2.3c0.2-1.1,0.5-1.9,0.5-1.9s-2.1-0.3-3.1,1.4c-0.5,0.9-0.4,1.5,1.3,2.3
	c-0.6,3.2-1.7,7.2-2.7,9.6c-0.5,1.3-0.5,1.7,0,1.2c0.1-0.1,0.5-0.7,0.8-1.6c0.8-2.1,2.1-5.7,2.8-8.9
	C121.9,134.9,122.3,135,122.7,135.1z"/>
<path fill-rule="evenodd" clip-rule="evenodd" fill="#FFFFFF" d="M128.3,143.7c-1.9,7.5,2.2,8.5,4.3,4.9c1.1-1.8,1.5-2.6,2.5-5.1
	c0.3-0.8,0.5-1.4,0.5-1.6c0-0.7-0.3-0.4-0.8,0.9c-1.1,2.7-1.6,3.9-2.5,5.3c-0.8,1.2-2,1.2-1.2-2.1c1-4.3,2.5-9.6,2.6-9.9
	c0,0-0.2-0.2-0.5-0.4c-1.1-0.8-2.6-0.8-3.7,3.4C129,140.8,128.5,142.7,128.3,143.7L128.3,143.7z M135.3,132.8c0.6-1,0-2.2-1.2-2.6
	c-1.3-0.4-2.8,0-3.3,0.9c-0.6,0.9,0,2.1,1.2,2.6C133.2,134.1,134.7,133.8,135.3,132.8z"/>
<path fill-rule="evenodd" clip-rule="evenodd" fill="#FFFFFF" d="M146,133.6c-1.4-2.5-8.9-1.5-11.2,7.3c-2.2,8.5,1.9,11.4,6.3,9.5
	c2.5-1.2,3.9-3.2,5.6-6.9c0.4-0.8,0.5-1.4,0.5-1.6c0-0.7-0.2-0.4-0.8,0.9c-1.9,4.2-3.4,5.9-5,6.7c-2,0.9-4.1-0.8-3.9-4.9
	C142.2,141.5,147.3,136.1,146,133.6L146,133.6z M138,141.1c1.9-7.2,4.3-9.1,5.2-7.2c0.7,1.6-1.1,6.8-5.7,9.7
	C137.6,142.8,137.8,142,138,141.1z"/>
<path fill-rule="evenodd" clip-rule="evenodd" fill="#FFFFFF" d="M147.7,151c0.1-0.6,1.2-5,2-8.2l0.2-0.8l0.2-0.9
	c0.9-3.1,2.3-5.6,3.7-7c1.3-1.3,1.8,0.2,0,6.6l-0.8,3.3c-1.8,7.5,2.1,8.1,4.3,4.5c1.1-1.8,1.5-2.6,2.5-5.1c0.3-0.8,0.5-1.4,0.5-1.6
	c0-0.7-0.3-0.4-0.8,0.9c-1.1,2.7-1.6,3.9-2.5,5.3c-0.8,1.2-1.9,1.2-1.2-2c0.4-1.9,0.5-2.3,1.3-5c2.3-8.6-0.7-9.9-3.5-7.4
	c-0.9,0.8-1.7,1.9-2.4,3.2c0,0,0-0.1,0-0.1c1.1-4.3,0.1-5.5-2-5.2c-0.2,0-0.2,0-0.2,0s-0.1,1.7-1.4,6.8c-0.4,1.7-0.6,2.6-1.6,6.8
	c-1.2,5-0.4,5.7,1.4,5.9C147.6,151,147.7,151,147.7,151z"/>
<path fill-rule="evenodd" clip-rule="evenodd" fill="#FFFFFF" d="M169.8,133.4c-1.4-2.4-7.8-1.5-10.1,7.3c-2.2,8.5,1.4,10.9,5,9.4
	c2.6-1.1,4.1-3.2,5.7-6.9c0.4-0.8,0.5-1.4,0.5-1.6c0-0.7-0.2-0.4-0.8,0.9c-1.9,4.2-3.5,6-5.1,6.7c-1.8,0.7-3.9-1.7-2.1-8.3
	c1.9-7.2,5.2-8.9,6.2-7.2c0.9,1.4-0.3,2.8-2.1,2.5c-1.2-0.1-2.2,1.3-1.3,2.5c0.8,1,2.3,0.6,3.3-0.5
	C170.3,136.8,170.6,134.8,169.8,133.4z"/>
<path fill-rule="evenodd" clip-rule="evenodd" fill="#FFFFFF" d="M170,143.4c-1.9,7.5,2.2,8.5,4.3,4.9c1.1-1.8,1.5-2.6,2.5-5.1
	c0.3-0.8,0.5-1.4,0.5-1.6c0-0.7-0.3-0.4-0.8,0.9c-1.1,2.7-1.6,3.9-2.5,5.3c-0.8,1.2-2,1.2-1.2-2.1c1-4.3,2.5-9.6,2.6-9.9
	c0,0-0.2-0.2-0.5-0.4c-1.1-0.8-2.6-0.8-3.7,3.4C170.7,140.4,170.2,142.4,170,143.4L170,143.4z M177,132.5c0.6-1,0-2.2-1.2-2.6
	c-1.3-0.4-2.8,0-3.3,0.9c-0.6,0.9,0,2.1,1.2,2.6C174.9,133.8,176.4,133.4,177,132.5z"/>
<path fill-rule="evenodd" clip-rule="evenodd" fill="#FFFFFF" d="M176.5,140.6c-2.2,8.5,2,11.7,4.4,8.6c0.4-0.5,0.8-1.3,1.2-2.3
	c0.1,4,3,4.1,4.8,1.3c1.1-1.8,1.5-2.6,2.5-5.1c0.3-0.8,0.5-1.4,0.5-1.6c0-0.7-0.3-0.4-0.8,0.9c-1.1,2.7-1.6,3.9-2.5,5.3
	c-0.8,1.2-2,1.2-1.2-2c1.6-6.6,3.2-12.5,3.5-13.4c0,0-0.1-0.1-0.4-0.3c-1-0.6-2.1-0.9-3,1C183.6,131.1,178.7,132.4,176.5,140.6
	L176.5,140.6z M182.7,143c-0.7,2.9-1.4,4.8-2.1,5.7c-1.2,1.5-2.6-1.4-0.9-7.8c1.9-6.8,4.1-9.2,5.4-7.1c-0.2,0.5-0.4,1.2-0.6,1.9
	l-1.6,6.7C182.8,142.5,182.8,142.7,182.7,143z"/>
<path fill-rule="evenodd" clip-rule="evenodd" fill="#FFFFFF" d="M4.1,133.7c-0.7,3.4-2.2,8.4-2.9,10.9c-2,7.5,0.1,9,3.7,6.9
	c3.1-1.8,5.3-3.9,7-6.7c1-0.1,2.2-0.7,3.6-2c0.6-0.6,1-1.1,1.1-1.3c0.2-0.6-0.1-0.5-1.1,0.5c-1.3,1.3-2.4,2-3.3,2.2
	c1-1.7,1.8-3.7,2.5-6c2.4-8.5,1.5-12.9-2.4-11.2c-3.6,1.6-5,11.2-3.9,14.7c0.3,0.9,0.7,1.7,1.2,2.2c-1.4,3.4-3,5.9-4.8,7
	c-1.5,0.8-1.9-0.4-0.9-3.9c0.9-3.5,2.1-8.2,3.9-14.8c1.1-4.2,0.4-5.6-2.1-5.2c-0.1,0-0.3,0-0.3,0S5.3,128.5,4.1,133.7L4.1,133.7z
	 M9.3,141.3c-1-2.9,0.6-12.6,3-13.6c1.7-0.7,1.8,3-1.3,12.7c-0.3,0.9-0.6,1.8-0.9,2.6C9.7,142.6,9.5,142,9.3,141.3z"/>
<path fill-rule="evenodd" clip-rule="evenodd" fill="#FFFFFF" d="M15.1,144.5c-1.9,7.5,2.2,8.5,4.3,4.9c1.1-1.8,1.5-2.6,2.5-5.1
	c0.3-0.8,0.5-1.4,0.5-1.6c0-0.7-0.3-0.4-0.8,0.9c-1.1,2.7-1.6,3.9-2.5,5.3c-0.8,1.2-2,1.2-1.2-2.1c1-4.3,2.5-9.6,2.6-9.9
	c0,0-0.2-0.2-0.5-0.4c-1.1-0.8-2.6-0.8-3.7,3.4C15.8,141.6,15.4,143.6,15.1,144.5L15.1,144.5z M22.1,133.7c0.6-1,0-2.2-1.2-2.6
	c-1.3-0.4-2.8,0-3.3,0.9c-0.6,0.9,0,2.1,1.2,2.6C20,135,21.5,134.6,22.1,133.7z"/>
<path fill-rule="evenodd" clip-rule="evenodd" fill="#FFFFFF" d="M33.8,137.9c1.1-4,0-6-2.9-5.3c-2.9,0.7-4.5,5.8-2.9,8.8
	c0.3,0.5,0.6,1,1,1.4c-1.4,3.8-2.5,5.7-3.8,6.5c-1.2,0.8-1.7,0.6-0.9-2.6c1.6-6.6,3.2-12.5,3.5-13.4c0,0-0.1-0.1-0.4-0.3
	c-1.4-0.8-2.7-1-3.9,3.6c-0.6,2.7-1.5,6.1-1.9,7.7c-1.8,7.5,0.4,8.1,3.7,5.6c2.2-1.6,4.2-3.6,5.9-6.2c1.1,0.1,2.3-0.3,3.3-1.2
	c0.6-0.6,1-1.2,1.1-1.3c0.2-0.6-0.1-0.5-1.1,0.5c-1,1-2,1.4-2.9,1.4C32.5,141.6,33.3,139.9,33.8,137.9L33.8,137.9z M28.7,141.1
	c-1.3-2.4,0.3-7.3,2-7.6c0.9-0.2,1,1.7-0.7,6.8l-0.6,1.8C29.1,141.8,28.9,141.5,28.7,141.1z"/>
<path fill-rule="evenodd" clip-rule="evenodd" fill="#FFFFFF" d="M34,144.4c-1.9,7.5,2.2,8.5,4.3,4.9c1.1-1.8,1.5-2.6,2.5-5.1
	c0.3-0.8,0.5-1.4,0.5-1.6c0-0.7-0.3-0.4-0.8,0.9c-1.1,2.7-1.6,3.9-2.5,5.3c-0.8,1.2-2,1.2-1.2-2.1c1-4.3,2.5-9.6,2.6-9.9
	c0,0-0.2-0.2-0.5-0.4c-1.1-0.8-2.6-0.8-3.7,3.4C34.7,141.5,34.2,143.4,34,144.4L34,144.4z M35.8,134.9c0,0,2.6-0.9,3.9-1.4
	c1-0.4,1.5-1.4,1-2.3c-0.5-0.8-1.6-0.9-2.7,0.4l-2.5,2.9L35.8,134.9z"/>
<path fill-rule="evenodd" clip-rule="evenodd" fill="#FFFFFF" d="M45.4,144.3c-1.9,7.5,2.2,8.5,4.3,4.9c1.1-1.8,1.5-2.6,2.5-5.1
	c0.3-0.8,0.5-1.4,0.5-1.6c0-0.7-0.3-0.4-0.8,0.9c-1.1,2.7-1.6,3.9-2.5,5.3c-0.8,1.2-2,1.2-1.2-2c0.8-3.3,3.6-14.2,3.8-14.9
	c1.1-4.1,0.4-5.6-2.1-5.2c-0.1,0-0.3,0-0.3,0s-0.2,1.7-1.4,6.8C47.5,136.4,46.2,141,45.4,144.3z"/>
<path fill-rule="evenodd" clip-rule="evenodd" fill="#FFFFFF" d="M52,141.6c-2.2,8.5,2,11.7,4.4,8.6c0.4-0.5,0.8-1.3,1.2-2.3
	c0.1,4,3,4.1,4.8,1.3c1.1-1.8,1.5-2.6,2.5-5.1c0.3-0.8,0.5-1.4,0.5-1.6c0-0.7-0.3-0.4-0.8,0.9c-1.1,2.7-1.6,3.9-2.5,5.3
	c-0.8,1.2-2,1.2-1.2-2c1.6-6.6,3.2-12.5,3.5-13.4c0,0-0.1-0.1-0.4-0.3c-1-0.6-2.1-0.9-3,1C59,132,54.1,133.3,52,141.6L52,141.6z
	 M58.1,143.9c-0.7,2.9-1.4,4.8-2.1,5.7c-1.2,1.5-2.6-1.4-0.9-7.8c1.9-6.8,4.1-9.2,5.4-7.1c-0.2,0.5-0.4,1.2-0.6,1.9l-1.6,6.7
	C58.2,143.5,58.2,143.7,58.1,143.9z"/>
<path fill-rule="evenodd" clip-rule="evenodd" fill="#FFFFFF" d="M81.2,134.1c-1.4-2.5-8.9-1.5-11.2,7.3c-2.2,8.5,1.9,11.4,6.3,9.5
	c2.5-1.2,3.9-3.2,5.6-6.9c0.4-0.8,0.5-1.4,0.5-1.6c0-0.7-0.2-0.4-0.8,0.9c-1.9,4.2-3.4,5.9-5,6.7c-2,0.9-4.1-0.8-3.9-4.9
	C77.4,142,82.5,136.6,81.2,134.1L81.2,134.1z M73.2,141.6c1.9-7.2,4.3-9.1,5.2-7.2c0.7,1.6-1.1,6.8-5.7,9.7
	C72.8,143.3,73,142.5,73.2,141.6z"/>
<path fill-rule="evenodd" clip-rule="evenodd" fill="#FFFFFF" d="M95.7,143.1c-1.1,2.7-1.6,3.9-2.5,5.3c-1,1.5-1.4,1.7-1.9-0.1
	c-0.4-1.4-0.8-3.3-1.2-5.2c2.6-2.1,4.4-5.1,5.2-7.8c1.1-3.9-2.7-3.3-2.7-3.2c-0.2,3.8-1.1,7.1-2.8,9.3c-0.4-1.8-0.7-3.5-1.1-5
	c-1.4-5.9-5-6.1-6.3-2.6c-1.4,3.7-0.7,10.1,0.9,12.6l0.1,0.1c-0.5,0.5-0.9,1.1-1.2,1.7c-0.7,1.6-0.2,3.1,1.5,3.1l0.3,0
	c0-0.1,0.1-0.5,0.1-1c0.3-2.3,1.6-3.9,3.3-5.3l0.9,3.7c0.8,3.3,3.1,3.5,5.2,0.1c1.1-1.8,1.5-2.6,2.5-5.1c0.3-0.8,0.5-1.4,0.5-1.6
	C96.5,141.5,96.2,141.8,95.7,143.1L95.7,143.1z M83.8,146.2c-2-3.5-2.1-9.1-1.1-11.8c0.5-1.4,1.9-1.7,2.8,2.7c0.3,1.7,1,4.2,1.6,6.7
	C85.9,144.6,84.8,145.3,83.8,146.2z"/>
<path fill-rule="evenodd" clip-rule="evenodd" fill="#FFFFFF" d="M95.3,156.6l1.6-6.3c1.9,1.7,6.7,0.3,8.8-7.8
	c2.2-8.5-1.7-11.7-4.1-8.6c-0.3,0.4-0.6,0.8-0.9,1.4c0.4-2.9-0.7-3.7-2.4-3.5c-0.1,0-0.2,0-0.2,0s-0.1,1.7-1.4,6.8
	c-0.4,1.7-2,7.8-3,12c-1.2,5.1-0.4,5.7,1.4,5.9C95.2,156.6,95.3,156.6,95.3,156.6L95.3,156.6z M99.5,140.1l0.1-0.5
	c0-0.1,0.1-0.2,0.1-0.3c0.7-2.4,1.6-4.1,2.2-4.8c1.2-1.5,2.4,1.4,0.6,7.8c-1.8,6.7-4.1,9.1-5.4,7.2c0.8-3.3,1.7-6.7,2.1-8.5
	L99.5,140.1z"/>
<path fill-rule="evenodd" clip-rule="evenodd" fill="#FFFFFF" d="M118.1,133.8c-1.4-2.5-8.9-1.5-11.2,7.3c-2.2,8.5,1.9,11.4,6.3,9.5
	c2.5-1.2,3.9-3.2,5.6-6.9c0.4-0.8,0.5-1.4,0.5-1.6c0-0.7-0.2-0.4-0.8,0.9c-1.9,4.2-3.4,5.9-5,6.7c-2,0.9-4.1-0.8-3.9-4.9
	C114.4,141.7,119.5,136.3,118.1,133.8L118.1,133.8z M110.2,141.3c1.9-7.2,4.3-9.1,5.2-7.2c0.7,1.6-1.1,6.8-5.7,9.7
	C109.8,143,109.9,142.2,110.2,141.3z"/>
<path fill-rule="evenodd" clip-rule="evenodd" fill="#FFFFFF" d="M122.7,135.1c0.9,0.3,0.8,1,0.6,2.2l-1.4,6.4
	c-1.9,7.5,2.2,8.5,4.3,4.9c1.1-1.8,1.5-2.6,2.5-5.1c0.3-0.8,0.5-1.4,0.5-1.6c0-0.7-0.3-0.4-0.8,0.9c-1.1,2.7-1.6,3.9-2.5,5.3
	c-0.8,1.2-2,1.2-1.2-2l2.7-11.1c0.2-0.7-0.1-0.8-5.3-2.3c0.2-1.1,0.5-1.9,0.5-1.9s-2.1-0.3-3.1,1.4c-0.5,0.9-0.4,1.5,1.3,2.3
	c-0.6,3.2-1.7,7.2-2.7,9.6c-0.5,1.3-0.5,1.7,0,1.2c0.1-0.1,0.5-0.7,0.8-1.6c0.8-2.1,2.1-5.7,2.8-8.9
	C121.9,134.9,122.3,135,122.7,135.1z"/>
<path fill-rule="evenodd" clip-rule="evenodd" fill="#FFFFFF" d="M128.3,143.7c-1.9,7.5,2.2,8.5,4.3,4.9c1.1-1.8,1.5-2.6,2.5-5.1
	c0.3-0.8,0.5-1.4,0.5-1.6c0-0.7-0.3-0.4-0.8,0.9c-1.1,2.7-1.6,3.9-2.5,5.3c-0.8,1.2-2,1.2-1.2-2.1c1-4.3,2.5-9.6,2.6-9.9
	c0,0-0.2-0.2-0.5-0.4c-1.1-0.8-2.6-0.8-3.7,3.4C129,140.8,128.5,142.7,128.3,143.7L128.3,143.7z M135.3,132.8c0.6-1,0-2.2-1.2-2.6
	c-1.3-0.4-2.8,0-3.3,0.9c-0.6,0.9,0,2.1,1.2,2.6C133.2,134.1,134.7,133.8,135.3,132.8z"/>
<path fill-rule="evenodd" clip-rule="evenodd" fill="#FFFFFF" d="M146,133.6c-1.4-2.5-8.9-1.5-11.2,7.3c-2.2,8.5,1.9,11.4,6.3,9.5
	c2.5-1.2,3.9-3.2,5.6-6.9c0.4-0.8,0.5-1.4,0.5-1.6c0-0.7-0.2-0.4-0.8,0.9c-1.9,4.2-3.4,5.9-5,6.7c-2,0.9-4.1-0.8-3.9-4.9
	C142.2,141.5,147.3,136.1,146,133.6L146,133.6z M138,141.1c1.9-7.2,4.3-9.1,5.2-7.2c0.7,1.6-1.1,6.8-5.7,9.7
	C137.6,142.8,137.8,142,138,141.1z"/>
<path fill-rule="evenodd" clip-rule="evenodd" fill="#FFFFFF" d="M147.7,151c0.1-0.6,1.2-5,2-8.2l0.2-0.8l0.2-0.9
	c0.9-3.1,2.3-5.6,3.7-7c1.3-1.3,1.8,0.2,0,6.6l-0.8,3.3c-1.8,7.5,2.1,8.1,4.3,4.5c1.1-1.8,1.5-2.6,2.5-5.1c0.3-0.8,0.5-1.4,0.5-1.6
	c0-0.7-0.3-0.4-0.8,0.9c-1.1,2.7-1.6,3.9-2.5,5.3c-0.8,1.2-1.9,1.2-1.2-2c0.4-1.9,0.5-2.3,1.3-5c2.3-8.6-0.7-9.9-3.5-7.4
	c-0.9,0.8-1.7,1.9-2.4,3.2c0,0,0-0.1,0-0.1c1.1-4.3,0.1-5.5-2-5.2c-0.2,0-0.2,0-0.2,0s-0.1,1.7-1.4,6.8c-0.4,1.7-0.6,2.6-1.6,6.8
	c-1.2,5-0.4,5.7,1.4,5.9C147.6,151,147.7,151,147.7,151z"/>
<path fill-rule="evenodd" clip-rule="evenodd" fill="#FFFFFF" d="M169.8,133.4c-1.4-2.4-7.8-1.5-10.1,7.3c-2.2,8.5,1.4,10.9,5,9.4
	c2.6-1.1,4.1-3.2,5.7-6.9c0.4-0.8,0.5-1.4,0.5-1.6c0-0.7-0.2-0.4-0.8,0.9c-1.9,4.2-3.5,6-5.1,6.7c-1.8,0.7-3.9-1.7-2.1-8.3
	c1.9-7.2,5.2-8.9,6.2-7.2c0.9,1.4-0.3,2.8-2.1,2.5c-1.2-0.1-2.2,1.3-1.3,2.5c0.8,1,2.3,0.6,3.3-0.5
	C170.3,136.8,170.6,134.8,169.8,133.4z"/>
<path fill-rule="evenodd" clip-rule="evenodd" fill="#FFFFFF" d="M170,143.4c-1.9,7.5,2.2,8.5,4.3,4.9c1.1-1.8,1.5-2.6,2.5-5.1
	c0.3-0.8,0.5-1.4,0.5-1.6c0-0.7-0.3-0.4-0.8,0.9c-1.1,2.7-1.6,3.9-2.5,5.3c-0.8,1.2-2,1.2-1.2-2.1c1-4.3,2.5-9.6,2.6-9.9
	c0,0-0.2-0.2-0.5-0.4c-1.1-0.8-2.6-0.8-3.7,3.4C170.7,140.4,170.2,142.4,170,143.4L170,143.4z M177,132.5c0.6-1,0-2.2-1.2-2.6
	c-1.3-0.4-2.8,0-3.3,0.9c-0.6,0.9,0,2.1,1.2,2.6C174.9,133.8,176.4,133.4,177,132.5z"/>
<path fill-rule="evenodd" clip-rule="evenodd" fill="#FFFFFF" d="M176.5,140.6c-2.2,8.5,2,11.7,4.4,8.6c0.4-0.5,0.8-1.3,1.2-2.3
	c0.1,4,3,4.1,4.8,1.3c1.1-1.8,1.5-2.6,2.5-5.1c0.3-0.8,0.5-1.4,0.5-1.6c0-0.7-0.3-0.4-0.8,0.9c-1.1,2.7-1.6,3.9-2.5,5.3
	c-0.8,1.2-2,1.2-1.2-2c1.6-6.6,3.2-12.5,3.5-13.4c0,0-0.1-0.1-0.4-0.3c-1-0.6-2.1-0.9-3,1C183.6,131.1,178.7,132.4,176.5,140.6
	L176.5,140.6z M182.7,143c-0.7,2.9-1.4,4.8-2.1,5.7c-1.2,1.5-2.6-1.4-0.9-7.8c1.9-6.8,4.1-9.2,5.4-7.1c-0.2,0.5-0.4,1.2-0.6,1.9
	l-1.6,6.7C182.8,142.5,182.8,142.7,182.7,143z"/>
</svg>
